<svg xmlns="http://www.w3.org/2000/svg" xmlns:xlink="http://www.w3.org/1999/xlink" width="125.02471122083675" height="125.0123556105391"><path style="stroke: black; stroke-width: 1px; fill:none;" d="M124.9258858781117 33.73330826446195 L125.02471122083675 31.249999694677783"/><path style="stroke: black; stroke-width: 1px; fill:none;" d="M62.499997557422255 93.76235591586133 L62.401172214697205 96.24566448564549"/><path style="stroke: black; stroke-width: 1px; fill:none;" d="M124.9258858781117 33.73330826446195 L124.63003465557212 36.200916557915555"/><path style="stroke: black; stroke-width: 1px; fill:none;" d="M124.9258858781117 96.24566448564549 L124.63003465557212 98.7132727790991"/><path style="stroke: black; stroke-width: 1px; fill:none;" d="M62.401172214697205 96.24566448564549 L62.10532099215763 98.7132727790991"/><path style="stroke: black; stroke-width: 1px; fill:none;" d="M124.13902801990228 38.637223560910066 L124.63003465557212 36.200916557915555"/><path style="stroke: black; stroke-width: 1px; fill:none;" d="M124.13902801990228 101.14957978209361 L124.63003465557212 98.7132727790991"/><path style="stroke: black; stroke-width: 1px; fill:none;" d="M123.45597027314263 41.0268261561533 L124.13902801990228 38.637223560910066"/><path style="stroke: black; stroke-width: 1px; fill:none;" d="M123.45597027314263 103.53918237733686 L124.13902801990228 101.14957978209361"/><path style="stroke: black; stroke-width: 1px; fill:none;" d="M62.10532099215763 36.200916557915555 L57.778861535597756 47.766376155916674"/><path style="stroke: black; stroke-width: 1px; fill:none;" d="M122.58517992629265 43.35461650665631 L123.45597027314263 41.0268261561533"/><path style="stroke: black; stroke-width: 1px; fill:none;" d="M123.45597027314263 103.53918237733686 L122.58517992629265 105.86697272783988"/><path style="stroke: black; stroke-width: 1px; fill:none;" d="M62.10532099215763 98.7132727790991 L56.382472194862814 112.33480911089801"/><path style="stroke: black; stroke-width: 1px; fill:none;" d="M121.53216239629408 45.60587757234316 L122.58517992629265 43.35461650665631"/><path style="stroke: black; stroke-width: 1px; fill:none;" d="M124.13902801990228 101.14957978209361 L118.9071858582773 112.33480911089801"/><path style="stroke: black; stroke-width: 1px; fill:none;" d="M121.53216239629408 108.11823379352673 L122.58517992629265 105.86697272783988"/><path style="stroke: black; stroke-width: 1px; fill:none;" d="M117.35182279709773 51.761108594629185 L124.13902801990228 38.637223560910066"/><path style="stroke: black; stroke-width: 1px; fill:none;" d="M120.30357519901224 47.766376155916674 L121.53216239629408 45.60587757234316"/><path style="stroke: black; stroke-width: 1px; fill:none;" d="M120.30357519901224 110.27873237710023 L121.53216239629408 108.11823379352673"/><path style="stroke: black; stroke-width: 1px; fill:none;" d="M118.9071858582773 49.82245288971447 L120.30357519901224 47.766376155916674"/><path style="stroke: black; stroke-width: 1px; fill:none;" d="M118.9071858582773 112.33480911089801 L120.30357519901224 110.27873237710023"/><path style="stroke: black; stroke-width: 1px; fill:none;" d="M117.35182279709773 51.761108594629185 L118.9071858582773 49.82245288971447"/><path style="stroke: black; stroke-width: 1px; fill:none;" d="M117.35182279709773 114.27346481581273 L118.9071858582773 112.33480911089801"/><path style="stroke: black; stroke-width: 1px; fill:none;" d="M57.778861535597756 47.766376155916674 L49.31015911829961 56.75415311363791"/><path style="stroke: black; stroke-width: 1px; fill:none;" d="M53.122605858113005 53.5700864651042 L54.827109133683244 51.761108594629185"/><path style="stroke: black; stroke-width: 1px; fill:none;" d="M115.64731952152748 116.08244268628776 L117.35182279709773 114.27346481581273"/><path style="stroke: black; stroke-width: 1px; fill:none;" d="M53.122605858113005 116.08244268628776 L54.827109133683244 114.27346481581273"/><path style="stroke: black; stroke-width: 1px; fill:none;" d="M51.27973878666022 55.237949560604655 L53.122605858113005 53.5700864651042"/><path style="stroke: black; stroke-width: 1px; fill:none;" d="M113.8044524500747 117.75030578178821 L115.64731952152748 116.08244268628776"/><path style="stroke: black; stroke-width: 1px; fill:none;" d="M47.22631916984135 120.62146741835228 L56.382472194862814 112.33480911089801"/><path style="stroke: black; stroke-width: 1px; fill:none;" d="M51.27973878666022 117.75030578178821 L53.122605858113005 116.08244268628776"/><path style="stroke: black; stroke-width: 1px; fill:none;" d="M107.56610731178928 121.80661355111985 L118.9071858582773 112.33480911089801"/><path style="stroke: black; stroke-width: 1px; fill:none;" d="M111.8348727817141 56.75415311363791 L113.8044524500747 55.237949560604655"/><path style="stroke: black; stroke-width: 1px; fill:none;" d="M111.8348727817141 119.26650933482146 L113.8044524500747 117.75030578178821"/><path style="stroke: black; stroke-width: 1px; fill:none;" d="M51.27973878666022 117.75030578178821 L49.31015911829961 119.26650933482146"/><path style="stroke: black; stroke-width: 1px; fill:none;" d="M109.75103283325583 58.10911119716872 L111.8348727817141 56.75415311363791"/><path style="stroke: black; stroke-width: 1px; fill:none;" d="M109.75103283325583 120.62146741835228 L111.8348727817141 119.26650933482146"/><path style="stroke: black; stroke-width: 1px; fill:none;" d="M47.22631916984135 120.62146741835228 L49.31015911829961 119.26650933482146"/><path style="stroke: black; stroke-width: 1px; fill:none;" d="M107.56610731178928 59.294257329936315 L109.75103283325583 58.10911119716872"/><path style="stroke: black; stroke-width: 1px; fill:none;" d="M40.424092857162165 61.126263219645686 L49.31015911829961 56.75415311363791"/><path style="stroke: black; stroke-width: 1px; fill:none;" d="M107.56610731178928 121.80661355111985 L109.75103283325583 120.62146741835228"/><path style="stroke: black; stroke-width: 1px; fill:none;" d="M45.04139364837481 121.80661355111985 L47.22631916984135 120.62146741835228"/><path style="stroke: black; stroke-width: 1px; fill:none;" d="M105.29391001994297 122.81445485769065 L107.56610731178928 121.80661355111985"/><path style="stroke: black; stroke-width: 1px; fill:none;" d="M107.56610731178928 59.294257329936315 L102.94880652057665 61.126263219645686"/><path style="stroke: black; stroke-width: 1px; fill:none;" d="M42.76919635652849 122.81445485769065 L45.04139364837481 121.80661355111985"/><path style="stroke: black; stroke-width: 1px; fill:none;" d="M107.56610731178928 121.80661355111985 L102.94880652057665 123.63861944082923"/><path style="stroke: black; stroke-width: 1px; fill:none;" d="M105.29391001994297 122.81445485769065 L102.94880652057665 123.63861944082923"/><path style="stroke: black; stroke-width: 1px; fill:none;" d="M42.76919635652849 122.81445485769065 L40.424092857162165 123.63861944082923"/><path style="stroke: black; stroke-width: 1px; fill:none;" d="M33.10135004134082 124.96294293772826 L47.22631916984135 120.62146741835228"/><path style="stroke: black; stroke-width: 1px; fill:none;" d="M100.54562331306775 61.76154044550067 L102.94880652057665 61.126263219645686"/><path style="stroke: black; stroke-width: 1px; fill:none;" d="M102.94880652057665 123.63861944082923 L100.54562331306775 124.27389666668424"/><path style="stroke: black; stroke-width: 1px; fill:none;" d="M38.020909649653255 124.27389666668424 L40.424092857162165 123.63861944082923"/><path style="stroke: black; stroke-width: 1px; fill:none;" d="M100.54562331306775 61.76154044550067 L98.0995540954085 62.203913886909625"/><path style="stroke: black; stroke-width: 1px; fill:none;" d="M40.424092857162165 61.126263219645686 L30.616076680334622 62.499999389355565"/><path style="stroke: black; stroke-width: 1px; fill:none;" d="M98.0995540954085 124.71627010809318 L100.54562331306775 124.27389666668424"/><path style="stroke: black; stroke-width: 1px; fill:none;" d="M35.574840431994005 124.71627010809318 L38.020909649653255 124.27389666668424"/><path style="stroke: black; stroke-width: 1px; fill:none;" d="M95.6260637047553 62.45058671654471 L98.0995540954085 62.203913886909625"/><path style="stroke: black; stroke-width: 1px; fill:none;" d="M102.94880652057665 123.63861944082923 L90.65944671076316 124.8641957236988"/><path style="stroke: black; stroke-width: 1px; fill:none;" d="M95.6260637047553 124.96294293772826 L98.0995540954085 124.71627010809318"/><path style="stroke: black; stroke-width: 1px; fill:none;" d="M33.10135004134082 124.96294293772826 L35.574840431994005 124.71627010809318"/><path style="stroke: black; stroke-width: 1px; fill:none;" d="M95.6260637047553 62.45058671654471 L93.14079034374912 62.499999389355565"/><path style="stroke: black; stroke-width: 1px; fill:none;" d="M93.14079034374912 125.0123556105391 L95.6260637047553 124.96294293772826"/><path style="stroke: black; stroke-width: 1px; fill:none;" d="M54.827109133683244 51.761108594629185 L69.37592447146238 50.80724275275989"/><path style="stroke: black; stroke-width: 1px; fill:none;" d="M30.616076680334622 125.0123556105391 L33.10135004134082 124.96294293772826"/><path style="stroke: black; stroke-width: 1px; fill:none;" d="M30.616076680334622 62.499999389355565 L28.13473304734868 62.35183950251526"/><path style="stroke: black; stroke-width: 1px; fill:none;" d="M54.827109133683244 114.27346481581273 L69.37592447146238 113.31959897394343"/><path style="stroke: black; stroke-width: 1px; fill:none;" d="M90.65944671076316 62.35183950251526 L93.14079034374912 62.499999389355565"/><path style="stroke: black; stroke-width: 1px; fill:none;" d="M93.14079034374912 125.0123556105391 L90.65944671076316 124.8641957236988"/><path style="stroke: black; stroke-width: 1px; fill:none;" d="M28.13473304734868 124.8641957236988 L30.616076680334622 125.0123556105391"/><path style="stroke: black; stroke-width: 1px; fill:none;" d="M90.65944671076316 62.35183950251526 L88.19772065916494 62.007043770531524"/><path style="stroke: black; stroke-width: 1px; fill:none;" d="M88.19772065916494 124.51939999171509 L90.65944671076316 124.8641957236988"/><path style="stroke: black; stroke-width: 1px; fill:none;" d="M25.673006995750452 124.51939999171509 L28.13473304734868 124.8641957236988"/><path style="stroke: black; stroke-width: 1px; fill:none;" d="M33.10135004134082 124.96294293772826 L18.559963442166644 122.3331223315516"/><path style="stroke: black; stroke-width: 1px; fill:none;" d="M88.19772065916494 62.007043770531524 L85.77117601365603 61.46779210303604"/><path style="stroke: black; stroke-width: 1px; fill:none;" d="M18.559963442166644 59.82076611036806 L28.13473304734868 62.35183950251526"/><path style="stroke: black; stroke-width: 1px; fill:none;" d="M88.19772065916494 124.51939999171509 L85.77117601365603 123.98014832421961"/><path style="stroke: black; stroke-width: 1px; fill:none;" d="M23.246462350241547 123.98014832421961 L25.673006995750452 124.51939999171509"/><path style="stroke: black; stroke-width: 1px; fill:none;" d="M90.65944671076316 124.8641957236988 L81.08467710558114 122.3331223315516"/><path style="stroke: black; stroke-width: 1px; fill:none;" d="M83.39515417076144 123.24985004387747 L85.77117601365603 123.98014832421961"/><path style="stroke: black; stroke-width: 1px; fill:none;" d="M81.08467710558114 59.82076611036806 L85.77117601365603 61.46779210303604"/><path style="stroke: black; stroke-width: 1px; fill:none;" d="M20.870440507346956 123.24985004387747 L23.246462350241547 123.98014832421961"/><path style="stroke: black; stroke-width: 1px; fill:none;" d="M81.08467710558114 122.3331223315516 L83.39515417076144 123.24985004387747"/><path style="stroke: black; stroke-width: 1px; fill:none;" d="M20.870440507346956 123.24985004387747 L18.559963442166644 122.3331223315516"/><path style="stroke: black; stroke-width: 1px; fill:none;" d="M78.85435239802688 58.723404813815165 L81.08467710558114 59.82076611036806"/><path style="stroke: black; stroke-width: 1px; fill:none;" d="M81.08467710558114 122.3331223315516 L78.85435239802688 121.23576103499872"/><path style="stroke: black; stroke-width: 1px; fill:none;" d="M16.329638734612388 121.23576103499872 L18.559963442166644 122.3331223315516"/><path style="stroke: black; stroke-width: 1px; fill:none;" d="M81.08467710558114 122.3331223315516 L76.71828087899887 119.96470402565367"/><path style="stroke: black; stroke-width: 1px; fill:none;" d="M76.71828087899887 57.45234780447013 L78.85435239802688 58.723404813815165"/><path style="stroke: black; stroke-width: 1px; fill:none;" d="M10.257522189156886 54.42233812786961 L18.559963442166644 59.82076611036806"/><path style="stroke: black; stroke-width: 1px; fill:none;" d="M76.71828087899887 119.96470402565367 L78.85435239802688 121.23576103499872"/><path style="stroke: black; stroke-width: 1px; fill:none;" d="M14.19356721558438 119.96470402565367 L16.329638734612388 121.23576103499872"/><path style="stroke: black; stroke-width: 1px; fill:none;" d="M76.71828087899887 57.45234780447013 L74.6899674803926 56.015631113989016"/><path style="stroke: black; stroke-width: 1px; fill:none;" d="M74.6899674803926 118.52798733517257 L76.71828087899887 119.96470402565367"/><path style="stroke: black; stroke-width: 1px; fill:none;" d="M12.165253816978106 118.52798733517257 L14.19356721558438 119.96470402565367"/><path style="stroke: black; stroke-width: 1px; fill:none;" d="M6.851210808047891 113.31959897394343 L18.559963442166644 122.3331223315516"/><path style="stroke: black; stroke-width: 1px; fill:none;" d="M74.6899674803926 56.015631113989016 L72.78223585257138 54.42233812786961"/><path style="stroke: black; stroke-width: 1px; fill:none;" d="M74.6899674803926 118.52798733517257 L72.78223585257138 116.93469434905315"/><path style="stroke: black; stroke-width: 1px; fill:none;" d="M10.257522189156886 116.93469434905315 L12.165253816978106 118.52798733517257"/><path style="stroke: black; stroke-width: 1px; fill:none;" d="M10.257522189156886 54.42233812786961 L8.482433625705333 52.68254215736367"/><path style="stroke: black; stroke-width: 1px; fill:none;" d="M71.00714728911981 115.19489837854724 L72.78223585257138 116.93469434905315"/><path style="stroke: black; stroke-width: 1px; fill:none;" d="M8.482433625705333 115.19489837854724 L10.257522189156886 116.93469434905315"/><path style="stroke: black; stroke-width: 1px; fill:none;" d="M76.71828087899887 119.96470402565367 L66.58535376856162 109.21069658628109"/><path style="stroke: black; stroke-width: 1px; fill:none;" d="M6.851210808047891 50.80724275275989 L8.482433625705333 52.68254215736367"/><path style="stroke: black; stroke-width: 1px; fill:none;" d="M71.00714728911981 115.19489837854724 L69.37592447146238 113.31959897394343"/><path style="stroke: black; stroke-width: 1px; fill:none;" d="M6.851210808047891 113.31959897394343 L8.482433625705333 115.19489837854724"/><path style="stroke: black; stroke-width: 1px; fill:none;" d="M10.257522189156886 54.42233812786961 L2.9189351063692666 44.49071518587959"/><path style="stroke: black; stroke-width: 1px; fill:none;" d="M6.851210808047891 50.80724275275989 L5.374166852043618 48.80829616068545"/><path style="stroke: black; stroke-width: 1px; fill:none;" d="M69.37592447146238 50.80724275275989 L67.8988805154581 48.80829616068545"/><path style="stroke: black; stroke-width: 1px; fill:none;" d="M5.374166852043618 111.32065238186902 L6.851210808047891 113.31959897394343"/><path style="stroke: black; stroke-width: 1px; fill:none;" d="M4.06064010514712 46.69834036509754 L5.374166852043618 48.80829616068545"/><path style="stroke: black; stroke-width: 1px; fill:none;" d="M6.851210808047891 113.31959897394343 L4.06064010514712 109.21069658628109"/><path style="stroke: black; stroke-width: 1px; fill:none;" d="M5.374166852043618 111.32065238186902 L4.06064010514712 109.21069658628109"/><path style="stroke: black; stroke-width: 1px; fill:none;" d="M2.9189351063692666 44.49071518587959 L4.06064010514712 46.69834036509754"/><path style="stroke: black; stroke-width: 1px; fill:none;" d="M66.58535376856162 109.21069658628109 L65.44364876978375 107.00307140706315"/><path style="stroke: black; stroke-width: 1px; fill:none;" d="M2.9189351063692666 44.49071518587959 L1.956270082307797 42.19937794020504"/><path style="stroke: black; stroke-width: 1px; fill:none;" d="M65.44364876978375 107.00307140706315 L64.48098374572228 104.7117341613886"/><path style="stroke: black; stroke-width: 1px; fill:none;" d="M62.72220808568464 34.970053496038695 L67.8988805154581 48.80829616068545"/><path style="stroke: black; stroke-width: 1px; fill:none;" d="M1.1787313111946653 39.8388151998843 L1.956270082307797 42.19937794020504"/><path style="stroke: black; stroke-width: 1px; fill:none;" d="M2.9189351063692666 44.49071518587959 L0.19749442227015623 34.970053496038695"/><path style="stroke: black; stroke-width: 1px; fill:none;" d="M64.48098374572228 104.7117341613886 L63.703444974609155 102.35117142106785"/><path style="stroke: black; stroke-width: 1px; fill:none;" d="M1.1787313111946653 39.8388151998843 L0.5912346434854767 37.42395120259347"/><path style="stroke: black; stroke-width: 1px; fill:none;" d="M63.703444974609155 102.35117142106785 L63.11594830689996 99.93630742377702"/><path style="stroke: black; stroke-width: 1px; fill:none;" d="M0.19749442227015623 34.970053496038695 L0.5912346434854767 37.42395120259347"/><path style="stroke: black; stroke-width: 1px; fill:none;" d="M0.19749442227015623 97.48240971722224 L0.5912346434854767 99.93630742377702"/><path style="stroke: black; stroke-width: 1px; fill:none;" d="M62.10532099215763 36.200916557915555 L60.93125660972814 21.473173233202257"/><path style="stroke: black; stroke-width: 1px; fill:none;" d="M0 32.49263641160373 L0.19749442227015623 34.970053496038695"/><path style="stroke: black; stroke-width: 1px; fill:none;" d="M62.72220808568464 34.970053496038695 L62.52471366341449 32.49263641160373"/><path style="stroke: black; stroke-width: 1px; fill:none;" d="M0 95.00499263278726 L0.19749442227015623 97.48240971722224"/><path style="stroke: black; stroke-width: 1px; fill:none;" d="M124.9258858781117 91.27904734607716 L125.02471122083675 93.76235591586133"/><path style="stroke: black; stroke-width: 1px; fill:none;" d="M0 30.007362977751843 L0 32.49263641160373"/><path style="stroke: black; stroke-width: 1px; fill:none;" d="M125.02471122083675 31.249999694677776 L125.02471122083675 31.249999694677783"/><path style="stroke: black; stroke-width: 1px; fill:none;" d="M124.13902801990228 23.862775828445496 L124.13902801990228 38.637223560910066"/><path style="stroke: black; stroke-width: 1px; fill:none;" d="M62.52471366341449 32.49263641160373 L62.52471366341449 30.007362977751843"/><path style="stroke: black; stroke-width: 1px; fill:none;" d="M51.27973878666022 55.237949560604655 L51.27973878666022 69.77440604993447"/><path style="stroke: black; stroke-width: 1px; fill:none;" d="M113.8044524500747 69.77440604993447 L113.8044524500747 55.237949560604655"/><path style="stroke: black; stroke-width: 1px; fill:none;" d="M125.02471122083675 93.76235591586133 L125.02471122083675 93.76235591586133"/><path style="stroke: black; stroke-width: 1px; fill:none;" d="M124.13902801990228 86.37513204962904 L124.13902801990228 101.14957978209361"/><path style="stroke: black; stroke-width: 1px; fill:none;" d="M0.19749442227015623 34.970053496038695 L0.5912346434854802 25.07604818676209"/><path style="stroke: black; stroke-width: 1px; fill:none;" d="M62.499997557422255 93.76235591586133 L62.499997557422255 93.76235591586133"/><path style="stroke: black; stroke-width: 1px; fill:none;" d="M0 95.00499263278726 L0 92.51971919893539"/><path style="stroke: black; stroke-width: 1px; fill:none;" d="M10.257522189156886 54.42233812786961 L12.165253816978089 68.99672449655012"/><path style="stroke: black; stroke-width: 1px; fill:none;" d="M74.68996748039258 68.99672449655012 L72.78223585257138 54.42233812786961"/><path style="stroke: black; stroke-width: 1px; fill:none;" d="M124.9258858781117 96.24566448564549 L125.02471122083675 93.76235591586133"/><path style="stroke: black; stroke-width: 1px; fill:none;" d="M63.11594830689996 99.93630742377702 L63.703444974609155 85.17354041065484"/><path style="stroke: black; stroke-width: 1px; fill:none;" d="M0.19749442227015276 27.529945893316892 L0 30.007362977751843"/><path style="stroke: black; stroke-width: 1px; fill:none;" d="M1.1787313111946653 85.17354041065484 L0.5912346434854767 99.93630742377702"/><path style="stroke: black; stroke-width: 1px; fill:none;" d="M0 92.51971919893539 L0.19749442227015276 90.04230211450044"/><path style="stroke: black; stroke-width: 1px; fill:none;" d="M0.19749442227015276 27.529945893316892 L0.5912346434854802 25.07604818676209"/><path style="stroke: black; stroke-width: 1px; fill:none;" d="M62.52471366341449 30.007362977751843 L63.703444974609155 22.661184189471278"/><path style="stroke: black; stroke-width: 1px; fill:none;" d="M0.5912346434854802 87.58840440794563 L0.19749442227015276 90.04230211450044"/><path style="stroke: black; stroke-width: 1px; fill:none;" d="M1.1787313111946653 85.17354041065484 L0.5912346434854802 87.58840440794563"/><path style="stroke: black; stroke-width: 1px; fill:none;" d="M1.9562700823077899 20.300621449150544 L1.1787313111946653 22.661184189471278"/><path style="stroke: black; stroke-width: 1px; fill:none;" d="M63.703444974609155 22.661184189471278 L64.48098374572227 20.300621449150544"/><path style="stroke: black; stroke-width: 1px; fill:none;" d="M1.1787313111946653 85.17354041065484 L1.9562700823077899 82.81297767033409"/><path style="stroke: black; stroke-width: 1px; fill:none;" d="M2.9189351063692697 18.00928420347597 L1.9562700823077899 20.300621449150544"/><path style="stroke: black; stroke-width: 1px; fill:none;" d="M2.9189351063692697 80.52164042465952 L1.9562700823077899 82.81297767033409"/><path style="stroke: black; stroke-width: 1px; fill:none;" d="M4.060640105147116 15.801659024258027 L2.9189351063692697 18.00928420347597"/><path style="stroke: black; stroke-width: 1px; fill:none;" d="M1.1787313111946653 22.661184189471278 L8.482433625705315 9.817457231991913"/><path style="stroke: black; stroke-width: 1px; fill:none;" d="M6.851210808047884 74.20511285777923 L1.1787313111946653 85.17354041065484"/><path style="stroke: black; stroke-width: 1px; fill:none;" d="M4.060640105147116 78.3140152454416 L2.9189351063692697 80.52164042465952"/><path style="stroke: black; stroke-width: 1px; fill:none;" d="M71.0071472891198 72.32981345317546 L63.703444974609155 85.17354041065484"/><path style="stroke: black; stroke-width: 1px; fill:none;" d="M4.060640105147116 15.801659024258027 L5.374166852043621 13.691703228670105"/><path style="stroke: black; stroke-width: 1px; fill:none;" d="M64.48098374572227 20.300621449150544 L72.78223585257138 8.077661261485959"/><path style="stroke: black; stroke-width: 1px; fill:none;" d="M5.374166852043621 76.20405944985366 L4.060640105147116 78.3140152454416"/><path style="stroke: black; stroke-width: 1px; fill:none;" d="M6.851210808047884 11.69275663659569 L5.374166852043621 13.691703228670105"/><path style="stroke: black; stroke-width: 1px; fill:none;" d="M6.851210808047884 74.20511285777923 L5.374166852043621 76.20405944985366"/><path style="stroke: black; stroke-width: 1px; fill:none;" d="M6.851210808047884 11.69275663659569 L8.482433625705315 9.817457231991913"/><path style="stroke: black; stroke-width: 1px; fill:none;" d="M69.37592447146237 11.69275663659569 L71.0071472891198 9.817457231991913"/><path style="stroke: black; stroke-width: 1px; fill:none;" d="M71.0071472891198 72.32981345317546 L69.37592447146237 74.20511285777923"/><path style="stroke: black; stroke-width: 1px; fill:none;" d="M8.482433625705315 72.32981345317546 L6.851210808047884 74.20511285777923"/><path style="stroke: black; stroke-width: 1px; fill:none;" d="M72.78223585257138 8.077661261485959 L71.0071472891198 9.817457231991913"/><path style="stroke: black; stroke-width: 1px; fill:none;" d="M10.257522189156889 70.59001748266951 L8.482433625705315 72.32981345317546"/><path style="stroke: black; stroke-width: 1px; fill:none;" d="M6.851210808047884 74.20511285777923 L14.193567215584384 67.56000780606898"/><path style="stroke: black; stroke-width: 1px; fill:none;" d="M12.165253816978089 68.99672449655012 L10.257522189156889 70.59001748266951"/><path style="stroke: black; stroke-width: 1px; fill:none;" d="M76.71828087899887 67.56000780606898 L74.68996748039258 68.99672449655012"/><path style="stroke: black; stroke-width: 1px; fill:none;" d="M76.71828087899887 67.56000780606898 L78.85435239802688 66.28895079672395"/><path style="stroke: black; stroke-width: 1px; fill:none;" d="M18.559963442166627 2.6792332789875117 L16.329638734612395 3.7765945755404022"/><path style="stroke: black; stroke-width: 1px; fill:none;" d="M81.08467710558112 65.19158950017106 L78.85435239802688 66.28895079672395"/><path style="stroke: black; stroke-width: 1px; fill:none;" d="M20.870440507346967 1.7625055666616376 L18.559963442166627 2.6792332789875117"/><path style="stroke: black; stroke-width: 1px; fill:none;" d="M81.08467710558112 65.19158950017106 L83.39515417076146 64.27486178784518"/><path style="stroke: black; stroke-width: 1px; fill:none;" d="M25.673006995750413 63.0053118400076 L14.193567215584384 67.56000780606898"/><path style="stroke: black; stroke-width: 1px; fill:none;" d="M20.870440507346967 1.7625055666616376 L23.24646235024154 1.032207286319525"/><path style="stroke: black; stroke-width: 1px; fill:none;" d="M30.61607668033462 0 L16.329638734612395 3.7765945755404022"/><path style="stroke: black; stroke-width: 1px; fill:none;" d="M85.77117601365602 63.54456350750308 L83.39515417076146 64.27486178784518"/><path style="stroke: black; stroke-width: 1px; fill:none;" d="M25.673006995750413 0.4929556188240494 L23.24646235024154 1.032207286319525"/><path style="stroke: black; stroke-width: 1px; fill:none;" d="M88.19772065916491 63.0053118400076 L85.77117601365602 63.54456350750308"/><path style="stroke: black; stroke-width: 1px; fill:none;" d="M28.134733047348693 0.14815988684030526 L25.673006995750413 0.4929556188240494"/><path style="stroke: black; stroke-width: 1px; fill:none;" d="M88.19772065916491 63.0053118400076 L90.65944671076318 62.660516108023856"/><path style="stroke: black; stroke-width: 1px; fill:none;" d="M30.61607668033462 0 L28.134733047348693 0.14815988684030526"/><path style="stroke: black; stroke-width: 1px; fill:none;" d="M90.65944671076318 62.660516108023856 L93.14079034374912 62.51235622118355"/><path style="stroke: black; stroke-width: 1px; fill:none;" d="M69.37592447146237 11.69275663659569 L54.827109133683244 10.738890794726384"/><path style="stroke: black; stroke-width: 1px; fill:none;" d="M33.101350041340794 0.04941267281085398 L30.61607668033462 0"/><path style="stroke: black; stroke-width: 1px; fill:none;" d="M69.37592447146237 74.20511285777923 L54.827109133683244 73.25124701590993"/><path style="stroke: black; stroke-width: 1px; fill:none;" d="M93.14079034374912 62.51235622118355 L95.62606370475527 62.561768893994405"/><path style="stroke: black; stroke-width: 1px; fill:none;" d="M35.57484043199401 0.29608550244593856 L33.101350041340794 0.04941267281085398"/><path style="stroke: black; stroke-width: 1px; fill:none;" d="M40.424092857162165 63.88609239089343 L25.673006995750413 63.0053118400076"/><path style="stroke: black; stroke-width: 1px; fill:none;" d="M95.62606370475527 62.561768893994405 L98.0995540954085 62.80844172362949"/><path style="stroke: black; stroke-width: 1px; fill:none;" d="M38.02090964965325 0.738458943854888 L35.57484043199401 0.29608550244593856"/><path style="stroke: black; stroke-width: 1px; fill:none;" d="M45.04139364837479 3.2057420594192503 L30.61607668033462 0"/><path style="stroke: black; stroke-width: 1px; fill:none;" d="M98.0995540954085 62.80844172362949 L100.54562331306774 63.250815165038446"/><path style="stroke: black; stroke-width: 1px; fill:none;" d="M38.02090964965325 0.738458943854888 L40.424092857162165 1.373736169709882"/><path style="stroke: black; stroke-width: 1px; fill:none;" d="M100.54562331306774 63.250815165038446 L102.94880652057665 63.88609239089343"/><path style="stroke: black; stroke-width: 1px; fill:none;" d="M40.424092857162165 1.373736169709882 L42.76919635652849 2.1979007528484638"/><path style="stroke: black; stroke-width: 1px; fill:none;" d="M105.29391001994297 2.1979007528484638 L102.94880652057665 1.373736169709882"/><path style="stroke: black; stroke-width: 1px; fill:none;" d="M102.94880652057665 1.373736169709882 L107.56610731178927 3.2057420594192503"/><path style="stroke: black; stroke-width: 1px; fill:none;" d="M102.94880652057665 63.88609239089343 L107.56610731178927 65.7180982806028"/><path style="stroke: black; stroke-width: 1px; fill:none;" d="M45.04139364837479 3.2057420594192503 L42.76919635652849 2.1979007528484638"/><path style="stroke: black; stroke-width: 1px; fill:none;" d="M105.29391001994297 2.1979007528484638 L107.56610731178927 3.2057420594192503"/><path style="stroke: black; stroke-width: 1px; fill:none;" d="M47.22631916984135 4.390888192186843 L45.04139364837479 3.2057420594192503"/><path style="stroke: black; stroke-width: 1px; fill:none;" d="M107.56610731178927 65.7180982806028 L109.75103283325583 66.9032444133704"/><path style="stroke: black; stroke-width: 1px; fill:none;" d="M51.27973878666022 7.262049828750918 L45.04139364837479 3.2057420594192503"/><path style="stroke: black; stroke-width: 1px; fill:none;" d="M49.310159118299616 5.74584627571765 L47.22631916984135 4.390888192186843"/><path style="stroke: black; stroke-width: 1px; fill:none;" d="M53.122605858113 71.44226914543492 L40.424092857162165 63.88609239089343"/><path style="stroke: black; stroke-width: 1px; fill:none;" d="M111.8348727817141 5.74584627571765 L109.75103283325583 4.390888192186843"/><path style="stroke: black; stroke-width: 1px; fill:none;" d="M51.27973878666022 7.262049828750918 L49.310159118299616 5.74584627571765"/><path style="stroke: black; stroke-width: 1px; fill:none;" d="M113.8044524500747 7.262049828750918 L111.8348727817141 5.74584627571765"/><path style="stroke: black; stroke-width: 1px; fill:none;" d="M53.122605858113 8.929912924251367 L51.27973878666022 7.262049828750918"/><path style="stroke: black; stroke-width: 1px; fill:none;" d="M115.64731952152748 8.929912924251367 L113.8044524500747 7.262049828750918"/><path style="stroke: black; stroke-width: 1px; fill:none;" d="M115.64731952152748 71.44226914543492 L113.8044524500747 69.77440604993447"/><path style="stroke: black; stroke-width: 1px; fill:none;" d="M109.75103283325583 4.390888192186843 L120.30357519901223 14.733623233438875"/><path style="stroke: black; stroke-width: 1px; fill:none;" d="M53.122605858113 71.44226914543492 L51.27973878666022 69.77440604993447"/><path style="stroke: black; stroke-width: 1px; fill:none;" d="M109.75103283325583 66.9032444133704 L120.30357519901223 77.24597945462243"/><path style="stroke: black; stroke-width: 1px; fill:none;" d="M53.122605858113 8.929912924251367 L54.827109133683244 10.738890794726384"/><path style="stroke: black; stroke-width: 1px; fill:none;" d="M117.35182279709773 10.738890794726384 L115.64731952152748 8.929912924251367"/><path style="stroke: black; stroke-width: 1px; fill:none;" d="M115.64731952152748 71.44226914543492 L117.35182279709773 73.25124701590993"/><path style="stroke: black; stroke-width: 1px; fill:none;" d="M118.9071858582773 12.677546499641105 L117.35182279709773 10.738890794726384"/><path style="stroke: black; stroke-width: 1px; fill:none;" d="M60.06046626287819 19.14538288269926 L51.27973878666022 7.262049828750918"/><path style="stroke: black; stroke-width: 1px; fill:none;" d="M118.9071858582773 75.18990272082465 L117.35182279709773 73.25124701590993"/><path style="stroke: black; stroke-width: 1px; fill:none;" d="M56.38247219486282 75.18990272082465 L54.827109133683244 73.25124701590993"/><path style="stroke: black; stroke-width: 1px; fill:none;" d="M118.9071858582773 12.677546499641105 L120.30357519901223 14.733623233438875"/><path style="stroke: black; stroke-width: 1px; fill:none;" d="M120.30357519901223 77.24597945462243 L118.9071858582773 75.18990272082465"/><path style="stroke: black; stroke-width: 1px; fill:none;" d="M57.77886153559775 77.24597945462243 L56.38247219486282 75.18990272082465"/><path style="stroke: black; stroke-width: 1px; fill:none;" d="M121.53216239629408 16.8941218170124 L120.30357519901223 14.733623233438875"/><path style="stroke: black; stroke-width: 1px; fill:none;" d="M121.53216239629408 79.40647803819596 L120.30357519901223 77.24597945462243"/><path style="stroke: black; stroke-width: 1px; fill:none;" d="M59.0074487328796 79.40647803819596 L57.77886153559775 77.24597945462243"/><path style="stroke: black; stroke-width: 1px; fill:none;" d="M121.53216239629408 16.8941218170124 L122.58517992629265 19.14538288269926"/><path style="stroke: black; stroke-width: 1px; fill:none;" d="M122.58517992629265 81.6577391038828 L121.53216239629408 79.40647803819596"/><path style="stroke: black; stroke-width: 1px; fill:none;" d="M120.30357519901223 14.733623233438875 L124.13902801990228 23.862775828445496"/><path style="stroke: black; stroke-width: 1px; fill:none;" d="M59.0074487328796 79.40647803819596 L60.06046626287819 81.6577391038828"/><path style="stroke: black; stroke-width: 1px; fill:none;" d="M120.30357519901223 77.24597945462243 L124.13902801990228 86.37513204962904"/><path style="stroke: black; stroke-width: 1px; fill:none;" d="M60.93125660972814 21.473173233202257 L60.06046626287819 19.14538288269926"/><path style="stroke: black; stroke-width: 1px; fill:none;" d="M123.45597027314261 21.473173233202257 L122.58517992629265 19.14538288269926"/><path style="stroke: black; stroke-width: 1px; fill:none;" d="M123.45597027314261 83.9855294543858 L122.58517992629265 81.6577391038828"/><path style="stroke: black; stroke-width: 1px; fill:none;" d="M60.06046626287819 81.6577391038828 L60.93125660972814 83.9855294543858"/><path style="stroke: black; stroke-width: 1px; fill:none;" d="M124.13902801990228 23.862775828445496 L123.45597027314261 21.473173233202257"/><path style="stroke: black; stroke-width: 1px; fill:none;" d="M123.45597027314261 83.9855294543858 L124.13902801990228 86.37513204962904"/><path style="stroke: black; stroke-width: 1px; fill:none;" d="M60.93125660972814 83.9855294543858 L61.614314356487796 86.37513204962904"/><path style="stroke: black; stroke-width: 1px; fill:none;" d="M124.63003465557212 26.299082831440014 L124.13902801990228 23.862775828445496"/><path style="stroke: black; stroke-width: 1px; fill:none;" d="M124.13902801990228 86.37513204962904 L124.63003465557212 88.81143905262356"/><path style="stroke: black; stroke-width: 1px; fill:none;" d="M62.10532099215763 88.81143905262356 L61.614314356487796 86.37513204962904"/><path style="stroke: black; stroke-width: 1px; fill:none;" d="M124.63003465557212 26.299082831440014 L124.9258858781117 28.766691124893605"/><path style="stroke: black; stroke-width: 1px; fill:none;" d="M124.9258858781117 91.27904734607716 L124.63003465557212 88.81143905262356"/><path style="stroke: black; stroke-width: 1px; fill:none;" d="M62.10532099215763 88.81143905262356 L62.401172214697205 91.27904734607716"/><path style="stroke: black; stroke-width: 1px; fill:none;" d="M125.02471122083675 31.249999694677776 L124.9258858781117 28.766691124893605"/><path style="stroke: black; stroke-width: 1px; fill:none;" d="M62.499997557422255 93.76235591586133 L62.401172214697205 91.27904734607716"/></svg>
